# xmcd
#
# Track frame offsets:
#	183
#	15555
#	31690
#	47453
#	62895
#	79353
#	94708
#	110890
#	127505
#	140595
#	153580
#	167280
#
# Disc length: 2776 seconds
#
# Revision: 4
# Processed by: cddbd v1.4PL0 Copyright (c) Steve Scherf et al.
# Submitted via: audiograbber 1.80.04
#
DISCID=8e0ad60c
DTITLE=Daniele Groff - Bit
DYEAR=2001
DGENRE=Pop
TTITLE0=Lory (Chiudi gli occhi)
TTITLE1=Ti Voglio Bene
TTITLE2=Angeli
TTITLE3=If You Don't Like it
TTITLE4=Ma l'amore cos'è
TTITLE5=Mondo
TTITLE6=Anna Julia
TTITLE7=Per Sempre
TTITLE8=Cena
TTITLE9=Chicca
TTITLE10=Cislo Love
TTITLE11=Seduto sulla luna
EXTD=
EXTT0=
EXTT1=
EXTT2=
EXTT3=
EXTT4=
EXTT5=
EXTT6=
EXTT7=
EXTT8=
EXTT9=
EXTT10=
EXTT11=
PLAYORDER=
